<?xml version="1.0" encoding="utf-8"?>
<svg version="1.1" xmlns:xlink="http://www.w3.org/1999/xlink" width="164px" height="91px" xmlns="http://www.w3.org/2000/svg">
  <defs>
    <mask fill="white" id="clip77">
      <path d="M 0 83  L 0 0  L 164 0  L 164 83  L 98.1442495126705 83  L 83.0123456790124 91  L 68.4589250905039 83  L 0 83  Z " fill-rule="evenodd" />
    </mask>
  </defs>
  <g transform="matrix(1 0 0 1 -710 -1337 )">
    <path d="M 0 83  L 0 0  L 164 0  L 164 83  L 98.1442495126705 83  L 83.0123456790124 91  L 68.4589250905039 83  L 0 83  Z " fill-rule="nonzero" fill="#f2f2f2" stroke="none" fill-opacity="0" transform="matrix(1 0 0 1 710 1337 )" />
    <path d="M 0 83  L 0 0  L 164 0  L 164 83  L 98.1442495126705 83  L 83.0123456790124 91  L 68.4589250905039 83  L 0 83  Z " stroke-width="2" stroke="#f2f2f2" fill="none" transform="matrix(1 0 0 1 710 1337 )" mask="url(#clip77)" />
  </g>
</svg>