<?xml version="1.0" encoding="utf-8"?>
<svg version="1.1" xmlns:xlink="http://www.w3.org/1999/xlink" width="13px" height="13px" xmlns="http://www.w3.org/2000/svg">
  <g transform="matrix(1 0 0 1 -1517 -339 )">
    <path d="M 1.21875 0.8125  L 4.875 0.8125  C 5.0984375 0.8125  5.28125 0.9953125  5.28125 1.21875  L 5.28125 4.875  C 5.28125 5.0984375  5.0984375 5.28125  4.875 5.28125  L 1.21875 5.28125  C 0.9953125 5.28125  0.8125 5.0984375  0.8125 4.875  L 0.8125 1.21875  C 0.8125 0.9953125  0.9953125 0.8125  1.21875 0.8125  Z M 6.09375 1.21875  C 6.09375 0.5458984375  5.5478515625 0  4.875 0  L 1.21875 0  C 0.5458984375 0  0 0.5458984375  0 1.21875  L 0 4.875  C 0 5.5478515625  0.5458984375 6.09375  1.21875 6.09375  L 4.875 6.09375  C 5.5478515625 6.09375  6.09375 5.5478515625  6.09375 4.875  L 6.09375 1.21875  Z M 8.125 0.8125  L 11.78125 0.8125  C 12.0046875 0.8125  12.1875 0.9953125  12.1875 1.21875  L 12.1875 4.875  C 12.1875 5.0984375  12.0046875 5.28125  11.78125 5.28125  L 8.125 5.28125  C 7.9015625 5.28125  7.71875 5.0984375  7.71875 4.875  L 7.71875 1.21875  C 7.71875 0.9953125  7.9015625 0.8125  8.125 0.8125  Z M 13 1.21875  C 13 0.5458984375  12.4541015625 0  11.78125 0  L 8.125 0  C 7.4521484375 0  6.90625 0.5458984375  6.90625 1.21875  L 6.90625 4.875  C 6.90625 5.5478515625  7.4521484375 6.09375  8.125 6.09375  L 11.78125 6.09375  C 12.4541015625 6.09375  13 5.5478515625  13 4.875  L 13 1.21875  Z M 1.21875 7.71875  L 4.875 7.71875  C 5.0984375 7.71875  5.28125 7.9015625  5.28125 8.125  L 5.28125 11.78125  C 5.28125 12.0046875  5.0984375 12.1875  4.875 12.1875  L 1.21875 12.1875  C 0.9953125 12.1875  0.8125 12.0046875  0.8125 11.78125  L 0.8125 8.125  C 0.8125 7.9015625  0.9953125 7.71875  1.21875 7.71875  Z M 6.09375 8.125  C 6.09375 7.4521484375  5.5478515625 6.90625  4.875 6.90625  L 1.21875 6.90625  C 0.5458984375 6.90625  0 7.4521484375  0 8.125  L 0 11.78125  C 0 12.4541015625  0.5458984375 13  1.21875 13  L 4.875 13  C 5.5478515625 13  6.09375 12.4541015625  6.09375 11.78125  L 6.09375 8.125  Z M 8.125 7.71875  L 11.78125 7.71875  C 12.0046875 7.71875  12.1875 7.9015625  12.1875 8.125  L 12.1875 11.78125  C 12.1875 12.0046875  12.0046875 12.1875  11.78125 12.1875  L 8.125 12.1875  C 7.9015625 12.1875  7.71875 12.0046875  7.71875 11.78125  L 7.71875 8.125  C 7.71875 7.9015625  7.9015625 7.71875  8.125 7.71875  Z M 13 8.125  C 13 7.4521484375  12.4541015625 6.90625  11.78125 6.90625  L 8.125 6.90625  C 7.4521484375 6.90625  6.90625 7.4521484375  6.90625 8.125  L 6.90625 11.78125  C 6.90625 12.4541015625  7.4521484375 13  8.125 13  L 11.78125 13  C 12.4541015625 13  13 12.4541015625  13 11.78125  L 13 8.125  Z " fill-rule="nonzero" fill="#000000" stroke="none" transform="matrix(1 0 0 1 1517 339 )" />
  </g>
</svg>