<?xml version="1.0" encoding="utf-8"?>
<svg version="1.1" xmlns:xlink="http://www.w3.org/1999/xlink" width="7px" height="13px" xmlns="http://www.w3.org/2000/svg">
  <g transform="matrix(1 0 0 1 -1381 -338 )">
    <path d="M 0.255963474315069 11.6133333291016  L 0.256986301369863 11.6133333291016  C 0.124670425363861 11.7637316107563  0.05109885690286 11.9616613437103  0.05109885690286 12.1672327192382  C 0.05109885690286 12.6159640784757  0.39455165155321 12.9797327192382  0.818222144574093 12.9797327192382  C 1.01231271327127 12.9797327192382  1.19918841217873 12.9018092634711  1.34118721061644 12.7616666708984  L 6.71105022431507 7.07416667089844  C 7.01018062545707 6.75694766092113  7.01018062545707 6.24305233907887  6.71105022431507 5.92583332910156  L 1.34118721061644 0.238333329101563  C 1.19918841217873 0.0981907365288725  1.01231271327127 0.0202672807617833  0.818222144574098 0.0202672807617833  C 0.394551651553215 0.0202672807617833  0.0510988569028648 0.384035921524264  0.0510988569028648 0.832767280761783  C 0.0510988569028648 1.03833865628969  0.124670425363864 1.23626838924374  0.256986301369863 1.38666667089844  L 5.08372602739726 6.5  L 0.255963474315069 11.6133333291016  Z " fill-rule="nonzero" fill="#333333" stroke="none" transform="matrix(1 0 0 1 1381 338 )" />
  </g>
</svg>