<?xml version="1.0" encoding="utf-8"?>
<svg version="1.1" xmlns:xlink="http://www.w3.org/1999/xlink" width="20px" height="20px" xmlns="http://www.w3.org/2000/svg">
  <g transform="matrix(1 0 0 1 -1014 -135 )">
    <path d="M 20 10  C 20 4.47715250169207  15.5228474983079 0  10 0  C 4.47715250169207 0  0 4.47715250169207  0 10  C 0 15.5228474983079  4.47715250169207 20  10 20  C 15.5228474983079 20  20 15.5228474983079  20 10  Z M 11.0657142857143 10  L 14.0657142857143 13  L 13 14.0657142857143  L 10 11.0657142857143  L 7 14.0657142857143  L 5.93428571428571 13  L 8.93428571428571 10  L 5.93428571428571 7  L 7 5.93428571428571  L 10 8.93428571428571  L 13 5.93428571428571  L 14.0657142857143 7  L 11.0657142857143 10  Z " fill-rule="nonzero" fill="#778fa0" stroke="none" transform="matrix(1 0 0 1 1014 135 )" />
  </g>
</svg>