<?xml version="1.0" encoding="utf-8"?>
<svg version="1.1" xmlns:xlink="http://www.w3.org/1999/xlink" width="12px" height="25px" xmlns="http://www.w3.org/2000/svg">
  <g transform="matrix(1 0 0 1 -127 -258 )">
    <path d="M 4 2.08333333333333  C 4 3.23392656214749  3.10456949966159 4.16666666666667  2 4.16666666666667  C 0.895430500338414 4.16666666666667  0 3.23392656214749  0 2.08333333333333  C 0 0.932740104519181  0.895430500338414 0  2 0  C 3.10456949966159 0  4 0.932740104519181  4 2.08333333333333  Z M 2 14.5833333333333  C 3.10456949966159 14.5833333333333  4 13.6505932288142  4 12.5  C 4 11.3494067711858  3.10456949966159 10.4166666666667  2 10.4166666666667  C 0.895430500338414 10.4166666666667  0 11.3494067711858  0 12.5  C 0 13.6505932288142  0.895430500338414 14.5833333333333  2 14.5833333333333  Z M 2 25  C 3.10456949966159 25  4 24.0672598954808  4 22.9166666666667  C 4 21.7660734378525  3.10456949966159 20.8333333333333  2 20.8333333333333  C 0.895430500338414 20.8333333333333  0 21.7660734378525  0 22.9166666666667  C 0 24.0672598954808  0.895430500338414 25  2 25  Z M 12 2.08333333333333  C 12 3.23392656214749  11.1045694996616 4.16666666666667  10 4.16666666666667  C 8.89543050033841 4.16666666666667  8 3.23392656214749  8 2.08333333333333  C 8 0.932740104519181  8.89543050033841 0  10 0  C 11.1045694996616 0  12 0.932740104519181  12 2.08333333333333  Z M 10 14.5833333333333  C 11.1045694996616 14.5833333333333  12 13.6505932288142  12 12.5  C 12 11.3494067711858  11.1045694996616 10.4166666666667  10 10.4166666666667  C 8.89543050033841 10.4166666666667  8 11.3494067711858  8 12.5  C 8 13.6505932288142  8.89543050033841 14.5833333333333  10 14.5833333333333  Z M 10 25  C 11.1045694996616 25  12 24.0672598954808  12 22.9166666666667  C 12 21.7660734378525  11.1045694996616 20.8333333333333  10 20.8333333333333  C 8.89543050033841 20.8333333333333  8 21.7660734378525  8 22.9166666666667  C 8 24.0672598954808  8.89543050033841 25  10 25  Z " fill-rule="nonzero" fill="#262626" stroke="none" transform="matrix(1 0 0 1 127 258 )" />
  </g>
</svg>