<?xml version="1.0" encoding="utf-8"?>
<svg version="1.1" xmlns:xlink="http://www.w3.org/1999/xlink" width="133px" height="28px" xmlns="http://www.w3.org/2000/svg">
  <defs>
    <mask fill="white" id="clip57">
      <path d="M 0 28  L 0 0  L 50.1194029850744 0  L 96.7777777777778 0  L 133 0  L 133 28  L 0 28  Z " fill-rule="evenodd" />
    </mask>
  </defs>
  <g transform="matrix(1 0 0 1 -2303 -767 )">
    <path d="M 0 28  L 0 0  L 50.1194029850744 0  L 96.7777777777778 0  L 133 0  L 133 28  L 0 28  Z " fill-rule="nonzero" fill="#ffffff" stroke="none" transform="matrix(1 0 0 1 2303 767 )" />
    <path d="M 0 28  L 0 0  L 50.1194029850744 0  L 96.7777777777778 0  L 133 0  L 133 28  L 0 28  Z " stroke-width="2" stroke="#138fe0" fill="none" transform="matrix(1 0 0 1 2303 767 )" mask="url(#clip57)" />
  </g>
</svg>