<?xml version="1.0" encoding="utf-8"?>
<svg version="1.1" xmlns:xlink="http://www.w3.org/1999/xlink" width="15px" height="9px" xmlns="http://www.w3.org/2000/svg">
  <g transform="matrix(1 0 0 1 -169 -136 )">
    <path d="M 14.4901315789474 2.26654411764706  C 15.0657894736842 1.6875  14.9835526315789 0.943014705882353  14.5723684210526 0.446691176470588  C 14.3256578947368 0.198529411764706  13.9967105263158 0.115808823529412  13.6677631578947 0.115808823529412  L 1.33223684210526 0.198529411764706  C 1.00328947368421 0.198529411764706  0.674342105263158 0.28125  0.427631578947368 0.529411764705882  C -0.0657894736842096 1.02573529411765  -0.0657894736842096 1.77022058823529  0.427631578947368 2.26654411764706  L 6.59539473684211 8.47058823529412  C 6.67763157894737 8.55330882352941  6.84210526315789 8.63602941176471  6.92434210526316 8.71875  C 6.92434210526316 8.71875  7.00657894736842 8.8014705882353  7.00657894736842 8.8014705882353  C 7.41776315789474 8.96691176470589  7.99342105263158 8.88419117647059  8.32236842105263 8.55330882352941  L 14.4901315789474 2.26654411764706  Z " fill-rule="nonzero" fill="#aaaaaa" stroke="none" transform="matrix(1 0 0 1 169 136 )" />
  </g>
</svg>