<?xml version="1.0" encoding="utf-8"?>
<svg version="1.1" xmlns:xlink="http://www.w3.org/1999/xlink" width="18px" height="18px" xmlns="http://www.w3.org/2000/svg">
  <g transform="matrix(1 0 0 1 -1994 -1102 )">
    <path d="M 18 9  C 18 4.02943725152286  13.9705627484771 0  9 0  C 4.02943725152286 0  0 4.02943725152286  0 9  C 0 13.9705627484771  4.02943725152286 18  9 18  C 13.9705627484771 18  18 13.9705627484771  18 9  Z M 9.95914285714286 9  L 12.6591428571429 11.7  L 11.7 12.6591428571429  L 9 9.95914285714286  L 6.3 12.6591428571429  L 5.34085714285714 11.7  L 8.04085714285714 9  L 5.34085714285714 6.3  L 6.3 5.34085714285714  L 9 8.04085714285714  L 11.7 5.34085714285714  L 12.6591428571429 6.3  L 9.95914285714286 9  Z " fill-rule="nonzero" fill="#778fa0" stroke="none" transform="matrix(1 0 0 1 1994 1102 )" />
  </g>
</svg>