<?xml version="1.0" encoding="utf-8"?>
<svg version="1.1" xmlns:xlink="http://www.w3.org/1999/xlink" width="20px" height="20px" preserveAspectRatio="xMinYMid meet" viewBox="125 707  20 18" xmlns="http://www.w3.org/2000/svg">
  <path d="M 158 290  L 85 290  A 5 5 0 0 0 80 295 L 80 711  A 5 5 0 0 0 85 716 L 134 716  " stroke-width="2" stroke="#138fe0" fill="none" />
  <path d="M 156.5 286.5  A 3.5 3.5 0 0 0 153 290 A 3.5 3.5 0 0 0 156.5 293.5 A 3.5 3.5 0 0 0 160 290 A 3.5 3.5 0 0 0 156.5 286.5 Z M 133 723.6  L 140 716  L 133 708.4  L 133 723.6  Z " fill-rule="nonzero" fill="#138fe0" stroke="none" />
</svg>