<?xml version="1.0" encoding="utf-8"?>
<svg version="1.1" xmlns:xlink="http://www.w3.org/1999/xlink" width="20px" height="20px" preserveAspectRatio="xMinYMid meet" viewBox="1455 1213  20 18" xmlns="http://www.w3.org/2000/svg">
  <path d="M 929 1067  L 1193 1067  A 5 5 0 0 1 1198 1072 L 1198 1217  A 5 5 0 0 0 1203 1222 L 1464 1222  " stroke-width="2" stroke="#138fe0" fill="none" />
  <path d="M 930.5 1063.5  A 3.5 3.5 0 0 0 927 1067 A 3.5 3.5 0 0 0 930.5 1070.5 A 3.5 3.5 0 0 0 934 1067 A 3.5 3.5 0 0 0 930.5 1063.5 Z M 1463 1229.6  L 1470 1222  L 1463 1214.4  L 1463 1229.6  Z " fill-rule="nonzero" fill="#138fe0" stroke="none" />
</svg>