<?xml version="1.0" encoding="utf-8"?>
<svg version="1.1" xmlns:xlink="http://www.w3.org/1999/xlink" width="8px" height="10px" xmlns="http://www.w3.org/2000/svg">
  <g transform="matrix(1 0 0 1 -2469 -410 )">
    <path d="M 3.66666666666667 0.0707964601769915  C 3.86666666666667 0  4.13333333333333 0  4.33333333333333 0.0707964601769912  L 7.66666666666667 1.76991150442478  C 7.86666666666667 1.91150442477876  8 2.12389380530973  8 2.4070796460177  L 8 4.46017699115044  C 8 5.09734513274336  7.86666666666667 5.66371681415929  7.66666666666667 6.30088495575221  C 7.46666666666667 6.86725663716814  7.2 7.43362831858407  6.86666666666667 7.92920353982301  C 6.53333333333333 8.42477876106195  6.06666666666667 8.92035398230088  5.6 9.27433628318584  C 5.13333333333333 9.6283185840708  4.6 9.84070796460177  4 9.98230088495575  C 3.4 9.84070796460177  2.86666666666667 9.6283185840708  2.4 9.27433628318584  C 1.93333333333333 8.92035398230088  1.46666666666667 8.42477876106195  1.13333333333333 7.92920353982301  C 0.8 7.43362831858407  0.533333333333333 6.93805309734513  0.333333333333333 6.30088495575221  C 0.133333333333333 5.66371681415929  0 5.02654867256637  0 4.38938053097345  L 0 2.4070796460177  C 0 2.12389380530973  0.133333333333333 1.91150442477876  0.333333333333333 1.76991150442478  L 3.66666666666667 0.0707964601769915  Z M 7.33333333333333 2.47787610619469  L 4 0.849557522123894  L 0.666666666666667 2.47787610619469  L 0.666666666666667 4.38938053097345  C 0.666666666666667 4.95575221238938  0.733333333333333 5.45132743362832  0.933333333333333 6.01769911504425  C 1.13333333333333 6.51327433628319  1.33333333333333 7.00884955752212  1.66666666666667 7.43362831858407  C 2.06666666666667 8  2.4 8.35398230088496  2.8 8.63716814159292  C 3.13333333333333 8.8495575221239  3.53333333333333 9.06194690265487  4 9.20353982300885  C 4.46666666666667 9.06194690265487  4.86666666666667 8.8495575221239  5.2 8.63716814159292  C 5.53333333333333 8.35398230088495  5.93333333333333 8  6.33333333333333 7.43362831858407  C 6.66666666666667 7.00884955752212  6.86666666666667 6.58407079646018  7.06666666666667 6.01769911504425  C 7.26666666666667 5.45132743362832  7.33333333333333 4.95575221238938  7.33333333333333 4.38938053097345  L 7.33333333333333 2.47787610619469  Z M 3.53333333333333 5.45132743362832  L 5.86666666666667 3.04424778761062  L 6.33333333333333 3.53982300884956  L 3.53333333333333 6.44247787610619  L 1.66666666666667 4.46017699115044  L 2.13333333333333 3.96460176991151  L 3.53333333333333 5.45132743362832  Z " fill-rule="nonzero" fill="#ffd400" stroke="none" transform="matrix(1 0 0 1 2469 410 )" />
  </g>
</svg>