<?xml version="1.0" encoding="utf-8"?>
<svg version="1.1" xmlns:xlink="http://www.w3.org/1999/xlink" width="94px" height="124px" xmlns="http://www.w3.org/2000/svg">
  <g transform="matrix(1 0 0 1 -1166 -230 )">
    <path d="M 1213 353.043851064182  C 1194.4 322.411600654881  1166.5 304.032250409301  1166.5 273.4  C 1166.5 257.465714285714  1175.8 230.5  1213 230.5  C 1250.2 230.5  1259.5 257.465714285714  1259.5 273.4  C 1259.5 304.032250409301  1231.6 322.411600654881  1213 353.043851064182  Z " fill-rule="nonzero" fill="#009dd9" stroke="none" />
    <path d="M 1213 354  C 1194.2 323  1166 304.4  1166 273.4  C 1166 257.28  1175.4 230  1213 230  C 1250.6 230  1260 257.28  1260 273.4  C 1260 304.4  1231.8 323  1213 354  Z M 1213 352.087702128364  C 1231.4 321.823201309762  1259 303.664500818601  1259 273.4  C 1259 257.651428571429  1249.8 231  1213 231  C 1176.2 231  1167 257.651428571429  1167 273.4  C 1167 303.664500818601  1194.6 321.823201309762  1213 352.087702128364  Z " fill-rule="nonzero" fill="#ffffff" stroke="none" />
  </g>
</svg>