<?xml version="1.0" encoding="utf-8"?>
<svg version="1.1" xmlns:xlink="http://www.w3.org/1999/xlink" width="7px" height="14px" xmlns="http://www.w3.org/2000/svg">
  <g transform="matrix(1 0 0 1 -1293 -373 )">
    <path d="M 2.33333333333333 1.16666666666667  C 2.33333333333333 1.81099887480259  1.81099887480259 2.33333333333333  1.16666666666667 2.33333333333333  C 0.522334458530741 2.33333333333333  0 1.81099887480259  0 1.16666666666667  C 0 0.522334458530741  0.522334458530741 0  1.16666666666667 0  C 1.81099887480259 0  2.33333333333333 0.522334458530741  2.33333333333333 1.16666666666667  Z M 1.16666666666667 8.16666666666667  C 1.81099887480259 8.16666666666667  2.33333333333333 7.64433220813593  2.33333333333333 7  C 2.33333333333333 6.35566779186408  1.81099887480259 5.83333333333333  1.16666666666667 5.83333333333333  C 0.522334458530741 5.83333333333333  0 6.35566779186408  0 7  C 0 7.64433220813593  0.522334458530741 8.16666666666667  1.16666666666667 8.16666666666667  Z M 1.16666666666667 14  C 1.81099887480259 14  2.33333333333333 13.4776655414693  2.33333333333333 12.8333333333333  C 2.33333333333333 12.1890011251974  1.81099887480259 11.6666666666667  1.16666666666667 11.6666666666667  C 0.522334458530741 11.6666666666667  0 12.1890011251974  0 12.8333333333333  C 0 13.4776655414693  0.522334458530741 14  1.16666666666667 14  Z M 7 1.16666666666667  C 7 1.81099887480259  6.47766554146926 2.33333333333333  5.83333333333333 2.33333333333333  C 5.18900112519741 2.33333333333333  4.66666666666667 1.81099887480259  4.66666666666667 1.16666666666667  C 4.66666666666667 0.522334458530741  5.18900112519741 0  5.83333333333333 0  C 6.47766554146926 0  7 0.522334458530741  7 1.16666666666667  Z M 5.83333333333333 8.16666666666667  C 6.47766554146926 8.16666666666667  7 7.64433220813593  7 7  C 7 6.35566779186408  6.47766554146926 5.83333333333333  5.83333333333333 5.83333333333333  C 5.18900112519741 5.83333333333333  4.66666666666667 6.35566779186408  4.66666666666667 7  C 4.66666666666667 7.64433220813593  5.18900112519741 8.16666666666667  5.83333333333333 8.16666666666667  Z M 5.83333333333333 14  C 6.47766554146926 14  7 13.4776655414693  7 12.8333333333333  C 7 12.1890011251974  6.47766554146926 11.6666666666667  5.83333333333333 11.6666666666667  C 5.18900112519741 11.6666666666667  4.66666666666667 12.1890011251974  4.66666666666667 12.8333333333333  C 4.66666666666667 13.4776655414693  5.18900112519741 14  5.83333333333333 14  Z " fill-rule="nonzero" fill="#262626" stroke="none" transform="matrix(1 0 0 1 1293 373 )" />
  </g>
</svg>