<?xml version="1.0" encoding="utf-8"?>
<svg version="1.1" xmlns:xlink="http://www.w3.org/1999/xlink" width="11px" height="20px" xmlns="http://www.w3.org/2000/svg">
  <g transform="matrix(1 0 0 1 -354 -245 )">
    <path d="M 10.7627401387965 19.7285177112926  C 11.0531772564827 19.4464816672585  11.053060326629 18.9961960449219  10.7670202148438 18.7184298206676  L 1.78426159616024 9.99550304066051  L 10.7670202148438 1.27257628284801  C 11.0471898354388 1.0005107421875  11.0511658618683 0.542548517400568  10.7627401387965 0.262488392223011  C 10.4723030211104 -0.0195476518110796  10.0086046355552 -0.0194568093039773  9.72254114237034 0.258332120028409  L 0.313739459358377 9.39495567737926  C 0.151002975398936 9.55298490767045  0.0814458942819149 9.77372159090909  0.108249000581782 9.98587322443182  C 0.073961606549202 10.2023855202415  0.142770277177526 10.4300039284446  0.313739459358377 10.5960277210582  L 9.72254114237034 19.7326739834872  C 10.0027107629654 20.0047395241477  10.4743144157247 20.0086005415483  10.7627401387965 19.7285177112926  Z " fill-rule="nonzero" fill="#000000" stroke="none" transform="matrix(1 0 0 1 354 245 )" />
  </g>
</svg>