<?xml version="1.0" encoding="utf-8"?>
<svg version="1.1" xmlns:xlink="http://www.w3.org/1999/xlink" width="172px" height="209px" xmlns="http://www.w3.org/2000/svg">
  <g transform="matrix(1 0 0 1 -437 -276 )">
    <path d="M 171.405131339623 61.8535827640233  L 170.754334920991 115.24299071906  C 170.754334920991 140.635514074486  157.738405936321 164.07476629267  134.960530264151 178.3987539521  L 88.7539822971699 207.697819377907  C 88.1031858785377 208.348909688953  86.8015930412736 209  85.5 209  C 84.1984071627359 209  82.8968141214623 208.348909688953  82.2460177028302 207.697819377907  L 36.0394697358491 178.3987539521  C 13.9123904823113 164.074766496771  0.245665079009427 140.635514074486  1 115.24299071906  L 1 35.8099688934498  C 0.245665079009427 31.9034268230688  2.84885095754714 29.299065374781  6.75362967334905 29.2990655788825  C 35.3886735212264 29.2990655788825  62.7221243278302 19.5327105049809  80.944424865566 1.95327108621586  C 83.5476107441037 -0.651090362071955  87.4523894599057 -0.651090362071955  90.055575134434 1.95327108621586  C 108.27787567217 19.5327103008794  135.611326682783 29.299065374781  164.246370326651 29.2990655788825  C 167.500352623821 29.2990655788825  170.754334920991 31.9034270271703  170.754334920991 35.8099688934498  L 171.405131339623 61.8535827640233  Z M 157.738405936321 115.24299071906  L 158 61.8535827640233  L 158 42.3208724121185  C 129.754158507076 41.0186917900253  104.373096956368 31.9034270271703  85.5 15.6261684345999  C 66.6269030436321 31.9034270271703  40.595044870283 41.0186917900253  14 42.3208724121185  L 14 115.24299071906  C 13.2615940636792 136.077881693058  24.3251337924528 155.610591840861  43.1982307488207 167.330218052004  L 85.5 194.676012544671  L 127.801769251179 167.330218052004  C 146.674866207547 155.610591840861  157.738405936321 136.077881693058  157.738405936321 115.24299071906  Z M 79 97.9713180689655  C 79.020249125 94.0112793793103  81.612149515625 91.3712535172414  85.5 91.3712537241379  C 89.387850484375 91.3712539310345  91.979750875 94.0112795862069  92 97.9713180689655  L 92 130.971640413793  C 91.979750875 134.931679103448  89.387850484375 137.571704965517  85.5 137.571704758621  C 81.612149515625 137.571704758621  79.020249125 134.931678896552  79 130.971640413793  L 79 97.9713180689655  Z M 85.5 91.3712537241379  C 82.3348350544298 91.3712535556999  80.0286081989872 93.121026746977  79.2696698381642 95.9083132135565  C 75.5346714094408 93.6855395424095  73.040498453125 89.6684091157954  73.040498453125 85.0819131397059  C 73.040498453125 78.0865087276449  78.8426649302523 72.4156129852941  86 72.4156129852941  C 93.1573350697477 72.4156129852941  98.959501546875 78.0865087276449  98.959501546875 85.0819131397059  C 98.959501546875 90.0223759375052  96.0654930688809 94.3021994147284  91.8439795132878 96.390321401317  C 91.2291267503458 93.3242333094205  88.8439079241171 91.371253902088  85.5 91.3712537241379  Z " fill-rule="nonzero" fill="#ffffff" stroke="none" fill-opacity="0.584313725490196" transform="matrix(1 0 0 1 437 276 )" />
  </g>
</svg>