<?xml version="1.0" encoding="utf-8"?>
<svg version="1.1" xmlns:xlink="http://www.w3.org/1999/xlink" width="11px" height="11px" xmlns="http://www.w3.org/2000/svg">
  <g transform="matrix(1 0 0 1 -369 -1727 )">
    <path d="M 374.5 1727  C 377.58 1727  380 1729.42  380 1732.5  C 380 1735.58  377.58 1738  374.5 1738  C 371.42 1738  369 1735.58  369 1732.5  C 369 1729.42  371.42 1727  374.5 1727  Z " fill-rule="nonzero" fill="#ffffff" stroke="none" />
    <path d="M 374.5 1727.5  C 377.3 1727.5  379.5 1729.7  379.5 1732.5  C 379.5 1735.3  377.3 1737.5  374.5 1737.5  C 371.7 1737.5  369.5 1735.3  369.5 1732.5  C 369.5 1729.7  371.7 1727.5  374.5 1727.5  Z " stroke-width="1" stroke="#797979" fill="none" />
  </g>
</svg>