<?xml version="1.0" encoding="utf-8"?>
<svg version="1.1" xmlns:xlink="http://www.w3.org/1999/xlink" width="27px" height="32px" xmlns="http://www.w3.org/2000/svg">
  <g transform="matrix(1 0 0 1 -1169 -1297 )">
    <path d="M 26.9066194544756 9.47040501650117  L 26.8044595515508 17.644859823014  C 26.8044595515508 21.5327102889165  24.7612613969806 25.121495317538  21.1856646344888 27.3146417534317  L 13.9323111745557 31.800623062646  C 13.8301512716309 31.900311531323  13.6258314657813 32  13.421511627907 32  C 13.2171918220574 32  13.012871984183 31.900311531323  12.9107120812582 31.800623062646  L 5.65735862132515 27.3146417534317  C 2.18392176175817 25.121495348788  0.0385637042631078 21.5327102889165  0.156976744186047 17.644859823014  L 0.156976744186047 5.48286605067173  C 0.0385637042631078 4.88473520735982  0.447203347987051 4.48598130140187  1.06016279756061 4.48598133265187  C 5.55519875042507 4.48598133265187  9.8459148654152 2.99065423999708  12.7063922754086 0.299065429468458  C 13.1150319191326 -0.0996884764894859  13.7279913687061 -0.0996884764894859  14.1366309804053 0.299065429468458  C 16.9971083903987 2.99065420874708  21.2878245374136 4.48598130140187  25.7828604582534 4.48598133265187  C 26.2936600049021 4.48598133265187  26.8044595515508 4.88473523860981  26.8044595515508 5.48286605067173  L 26.9066194544756 9.47040501650117  Z M 24.7612613969806 17.644859823014  L 24.8023255813953 9.47040501650117  L 24.8023255813953 6.47975079994159  C 20.3683853470409 6.28037386258761  16.3841489408252 4.88473523860981  13.421511627907 2.39252339668516  C 10.4588743149888 4.88473523860981  6.3724779738235 6.28037386258761  2.19767441860465 6.47975079994159  L 2.19767441860465 17.644859823014  C 2.08176185883337 20.8348909769276  3.81848030462923 23.8255451622372  6.78111761754744 25.6199376921729  L 13.421511627907 29.8068535953563  L 20.0619056382665 25.6199376921729  C 23.0245429511847 23.8255451622372  24.7612613969806 20.8348909769276  24.7612613969806 17.644859823014  Z M 12.4011627906977 15.0003931971622  C 12.4043414324128 14.3940714839135  12.8112095169876 13.9898569978551  13.421511627907 13.9898570295331  C 14.0318137388263 13.989857061211  14.4386818234012 14.3940715155915  14.4418604651163 15.0003931971622  L 14.4418604651163 20.0530741303415  C 14.4386818234012 20.6593958435902  14.0318137388263 21.0636103296486  13.421511627907 21.0636102979706  C 12.8112095169876 21.0636102979706  12.4043414324128 20.6593958119122  12.4011627906977 20.0530741303415  L 12.4011627906977 15.0003931971622  Z M 13.421511627907 13.9898570295331  C 12.9246543399396 13.9898570037435  12.5626303568178 14.2577648607812  12.4434946838979 14.6845264250421  C 11.8571867910169 14.3441974419  11.4656596408975 13.7291344100739  11.4656596408975 13.0268957917253  C 11.4656596408975 11.9558290874863  12.3764648437024 11.0875579690402  13.5 11.0875579690402  C 14.6235351562976 11.0875579690402  15.5343403591025 11.9558290874863  15.5343403591025 13.0268957917253  C 15.5343403591025 13.7833302870821  15.0800483305801 14.438614264456  14.4173688770859 14.7583267217327  C 14.3208512922054 14.2888778272797  13.9464274066928 13.989857056779  13.421511627907 13.9898570295331  Z " fill-rule="nonzero" fill="#70b603" stroke="none" transform="matrix(1 0 0 1 1169 1297 )" />
  </g>
</svg>