<?xml version="1.0" encoding="utf-8"?>
<svg version="1.1" xmlns:xlink="http://www.w3.org/1999/xlink" width="14px" height="8px" xmlns="http://www.w3.org/2000/svg">
  <g transform="matrix(1 0 0 1 -2743 -1626 )">
    <path d="M 13.784592046875 1.26787148387097  C 14.054968734375 0.988772967741935  14.054968734375 0.536620177419355  13.78460803125 0.257538161290323  C 13.51423134375 -0.021560354838709  13.0762243125 -0.021560354838709  12.805847625 0.257538161290323  L 6.999784140625 6.25089401612903  L 1.194120375 0.257538161290323  C 0.9237436875 -0.021560354838709  0.48573665625 -0.021560354838709  0.21537596875 0.257538161290323  C -0.0550007187500003 0.536620177419355  -0.0550007187500003 0.988772967741936  0.21537596875 1.26787148387097  L 6.487235640625 7.74246183870968  C 6.622423984375 7.88199459677419  6.79934403125 7.95177746774194  6.97661584375 7.95177746774194  C 6.984338609375 7.95177746774194  6.992061375 7.94978037096774  6.999768140625 7.94936774193548  C 7.007890640625 7.94976385483871  7.01559740625 7.95177746774194  7.02335215625 7.95177746774194  C 7.20062396875 7.95177746774194  7.37751203125 7.88199458064516  7.512716375 7.74246183870968  L 13.784592046875 1.26787148387097  Z " fill-rule="nonzero" fill="#d7d7d7" stroke="none" transform="matrix(1 0 0 1 2743 1626 )" />
  </g>
</svg>