<?xml version="1.0" encoding="utf-8"?>
<svg version="1.1" xmlns:xlink="http://www.w3.org/1999/xlink" width="11px" height="11px" xmlns="http://www.w3.org/2000/svg">
  <g transform="matrix(1 0 0 1 -1001 -2353 )">
    <path d="M 1.375 5.5  C 1.375 3.22265625  3.22265625 1.375  5.5 1.375  C 7.77734375 1.375  9.625 3.22265625  9.625 5.5  C 9.625 7.77734375  7.77734375 9.625  5.5 9.625  C 3.22265625 9.625  1.375 7.77734375  1.375 5.5  Z M 10.3125 5.5  C 10.3125 2.84453125  8.15546875 0.6875  5.5 0.6875  C 2.84453125 0.6875  0.6875 2.84453125  0.6875 5.5  C 0.6875 8.15546875  2.84453125 10.3125  5.5 10.3125  C 8.15546875 10.3125  10.3125 8.15546875  10.3125 5.5  Z M 5.84375 7.5625  L 5.84375 8.25  L 5.15625 8.25  L 5.15625 7.5625  L 5.84375 7.5625  Z M 7.115625 4.365625  C 7.115625 5.14765625  6.5828125 5.57734375  5.9640625 6.0671875  L 5.90390625 6.11875  C 5.86953125 6.14453125  5.84375 6.2046875  5.84375 6.25625  L 5.84375 6.88359375  L 5.15625 6.88359375  L 5.15625 6.25625  C 5.15625 5.98984375  5.2765625 5.740625  5.47421875 5.57734375  L 5.534375 5.52578125  C 6.1359375 5.04453125  6.428125 4.7953125  6.428125 4.365625  C 6.428125 3.85  6.015625 3.4375  5.5 3.4375  C 4.9671875 3.4375  4.571875 3.8328125  4.571875 4.365625  L 3.884375 4.365625  C 3.884375 3.46328125  4.59765625 2.75  5.5 2.75  C 6.39375 2.75  7.115625 3.471875  7.115625 4.365625  Z " fill-rule="nonzero" fill="#000000" stroke="none" transform="matrix(1 0 0 1 1001 2353 )" />
  </g>
</svg>