<?xml version="1.0" encoding="utf-8"?>
<svg version="1.1" xmlns:xlink="http://www.w3.org/1999/xlink" width="14px" height="14px" xmlns="http://www.w3.org/2000/svg">
  <g transform="matrix(1 0 0 1 -2756 -1841 )">
    <path d="M 0 7  C 0 10.85  3.15 14  7 14  C 10.85 14  14 10.85  14 7  C 14 3.15  10.85 0  7 0  C 3.15 0  0 3.15  0 7  Z M 0.7 7  C 0.7 3.5  3.5 0.7  7 0.7  C 10.5 0.7  13.3 3.5  13.3 7  C 13.3 10.5  10.5 13.3  7 13.3  C 3.5 13.3  0.7 10.5  0.7 7  Z M 7.35 7.35  L 10.5875 7.35  C 10.7625 7.35  10.9375 7.175  10.9375 7  C 10.9375 6.825  10.7625 6.65  10.5875 6.65  L 7.35 6.65  L 7.35 3.4125  C 7.35 3.2375  7.175 3.0625  7 3.0625  C 6.825 3.0625  6.65 3.2375  6.65 3.4125  L 6.65 6.65  L 3.4125 6.65  C 3.2375 6.65  3.0625 6.825  3.0625 7  C 3.0625 7.175  3.2375 7.35  3.4125 7.35  L 6.65 7.35  L 6.65 10.5875  C 6.65 10.7625  6.825 10.9375  7 10.9375  C 7.175 10.9375  7.35 10.7625  7.35 10.5875  L 7.35 7.35  Z " fill-rule="nonzero" fill="#8c8c8c" stroke="none" transform="matrix(1 0 0 1 2756 1841 )" />
  </g>
</svg>