<?xml version="1.0" encoding="utf-8"?>
<svg version="1.1" xmlns:xlink="http://www.w3.org/1999/xlink" width="18px" height="18px" xmlns="http://www.w3.org/2000/svg">
  <g transform="matrix(1 0 0 1 -3513 -648 )">
    <path d="M 0.159252212389379 9  C 0.159252212389379 4.02991071428571  4.1535 0  9.07960619469026 0  C 9.49774778761062 0  9.83823451327434 0.341517857142857  9.83823451327434 0.765401785714286  C 9.83823451327434 1.18928571428571  9.4997389380531 1.53080357142857  9.07960619469026 1.53080357142857  C 4.98978318584071 1.53080357142857  1.67451769911504 4.87566964285714  1.67451769911504 9.00200892857143  C 1.67451769911504 13.1283482142857  4.98978318584071 16.4712053571429  9.07960619469026 16.4712053571429  C 13.1694292035398 16.4712053571429  16.4846946902655 13.1263392857143  16.4846946902655 9  C 16.4846946902655 8.578125  16.8231902654867 8.23459821428571  17.2433230088496 8.23459821428571  C 17.6634557522124 8.23459821428571  17.9999601769911 8.578125  17.9999601769911 9  C 17.9999601769911 13.9700892857143  14.0057123893805 18  9.07960619469026 18  C 4.1535 18  0.159252212389379 13.9700892857143  0.159252212389379 9  Z M 13.8981902654867 4.05602678571429  L 13.6711991150442 3.82700892857143  C 13.3884557522124 3.53169642857143  13.3924380530973 3.06361607142857  13.6811548672566 2.77433035714286  C 13.9698716814159 2.48303571428571  14.4338097345133 2.48102678571429  14.7304911504425 2.7703125  L 16.036685840708 4.08816964285714  C 16.4309336283186 4.4859375  16.4309336283186 5.12879464285714  16.036685840708 5.5265625  L 14.7304911504425 6.84441964285714  C 14.4397831858407 7.13772321428572  13.9678805309735 7.13772321428572  13.6771725663717 6.84441964285714  C 13.3864646017699 6.55111607142857  13.3864646017699 6.075  13.6771725663717 5.78169642857143  L 13.8981902654867 5.55870535714286  L 12.9364646017699 5.55870535714286  C 10.3220840707965 5.55870535714286  9.43403097345133 6.68169642857143  9.43403097345133 10.0787946428571  C 9.43403097345133 10.4946428571429  9.10150884955752 10.8301339285714  8.6893407079646 10.8301339285714  C 8.27717256637169 10.8301339285714  7.94465044247788 10.4946428571429  7.94465044247788 10.0787946428571  C 7.94465044247788 5.878125  9.4638982300885 4.05602678571429  12.9364646017699 4.05602678571429  L 13.8981902654867 4.05602678571429  Z " fill-rule="nonzero" fill="#ffffff" stroke="none" transform="matrix(1 0 0 1 3513 648 )" />
  </g>
</svg>