<?xml version="1.0" encoding="utf-8"?>
<svg version="1.1" xmlns:xlink="http://www.w3.org/1999/xlink" width="13px" height="13px" xmlns="http://www.w3.org/2000/svg">
  <g transform="matrix(1 0 0 1 -1407 -2412 )">
    <path d="M 9.39979130434783 5.11572413793103  C 9.18274782608695 5.0535632183908  9.04528695652174 5.00813793103448  8.98740869565217 4.97944827586207  C 8.82342028985507 4.90294252873563  8.74866086956522 4.80013793103448  8.76313043478261 4.67103448275862  C 8.7776 4.54193103448276  8.83306666666667 4.43912643678161  8.92953043478261 4.36262068965517  C 8.95846956521739 4.34349425287356  9.05252173913044 4.26937931034483  9.21168695652174 4.14027586206897  C 9.37085217391305 4.0111724137931  9.56619130434783 3.85577011494253  9.79770434782609 3.67406896551724  C 9.39255652173913 3.21503448275862  8.91023768115942 2.85402298850575  8.35074782608696 2.59103448275862  C 7.79125797101449 2.32804597701149  7.18353623188406 2.19655172413793  6.52758260869565 2.19655172413793  C 5.91986086956522 2.19655172413793  5.35072463768116 2.30891954022988  4.82017391304348 2.53365517241379  C 4.2896231884058 2.7583908045977  3.82659710144928 3.06680459770115  3.43109565217391 3.45889655172414  C 3.03559420289855 3.85098850574713  2.72449855072464 4.31002298850575  2.49780869565217 4.836  C 2.27111884057971 5.36197701149425  2.15777391304348 5.92620689655172  2.15777391304348 6.52868965517241  C 2.15777391304348 7.1216091954023  2.27111884057971 7.68105747126437  2.49780869565217 8.20703448275862  C 2.72449855072464 8.73301149425287  3.03559420289855 9.19204597701149  3.43109565217391 9.58413793103448  C 3.82659710144928 9.97622988505747  4.2896231884058 10.2846436781609  4.82017391304348 10.5093793103448  C 5.35072463768116 10.7341149425287  5.91986086956522 10.8464827586207  6.52758260869565 10.8464827586207  C 7.02919420289855 10.8464827586207  7.50427826086957 10.7675862068966  7.9528347826087 10.6097931034483  C 8.40139130434783 10.452  8.81136231884058 10.2296551724138  9.18274782608696 9.94275862068965  C 9.55413333333333 9.65586206896552  9.87246376811594 9.31875862068965  10.1377391304348 8.93144827586207  C 10.4030144927536 8.54413793103448  10.5983536231884 8.12096551724138  10.7237565217391 7.66193103448276  C 10.7912811594203 7.44197701149425  10.916684057971 7.26027586206897  11.0999652173913 7.11682758620689  C 11.2832463768116 6.97337931034483  11.5002898550725 6.90165517241379  11.7510956521739 6.90165517241379  C 12.0501333333333 6.90165517241379  12.3033507246377 7.00685057471264  12.510747826087 7.21724137931034  C 12.7181449275362 7.42763218390804  12.8218434782609 7.67627586206896  12.8218434782609 7.9631724137931  C 12.8218434782609 8.09705747126437  12.7977275362319 8.22616091954023  12.7494956521739 8.35048275862069  C 12.5469217391304 9.01990804597701  12.247884057971 9.63673563218391  11.8523826086957 10.2009655172414  C 11.4568811594203 10.7651954022989  10.9866202898551 11.2505287356322  10.4416 11.6569655172414  C 9.89657971014493 12.0634022988506  9.29126956521739 12.3813793103448  8.62566956521739 12.6108965517241  C 7.96006956521739 12.8404137931034  7.26070724637681 12.9551724137931  6.52758260869565 12.9551724137931  C 5.63046956521739 12.9551724137931  4.7864115942029 12.787816091954  3.99540869565217 12.4531034482759  C 3.20440579710145 12.1183908045977  2.51710144927536 11.6593563218391  1.93349565217391 11.076  C 1.34988985507246 10.4926436781609  0.886863768115943 9.81126436781609  0.544417391304348 9.03186206896552  C 0.201971014492754 8.25245977011494  0.0307478260869565 7.41806896551724  0.0307478260869569 6.52868965517241  C 0.0307478260869573 5.63931034482759  0.201971014492754 4.80252873563219  0.544417391304348 4.01834482758621  C 0.886863768115942 3.23416091954023  1.34988985507246 2.5527816091954  1.93349565217391 1.97420689655172  C 2.51710144927536 1.39563218390805  3.20440579710145 0.936597701149426  3.99540869565217 0.597103448275862  C 4.7864115942029 0.257609195402299  5.63046956521739 0.0878620689655173  6.52758260869565 0.0878620689655176  C 7.52115942028985 0.0878620689655177  8.4423884057971 0.291080459770115  9.29126956521739 0.697517241379311  C 10.1401507246377 1.10395402298851  10.8636289855072 1.65622988505747  11.4617043478261 2.35434482758621  C 11.6835710144928 2.19177011494253  11.8692637681159 2.05071264367816  12.0187826086957 1.9311724137931  C 12.1683014492754 1.81163218390805  12.2623536231884 1.73751724137931  12.3009391304348 1.7088275862069  C 12.3588173913043 1.66101149425287  12.4215188405797 1.62514942528736  12.4890434782609 1.60124137931035  C 12.556568115942 1.57733333333333  12.6192695652174 1.57733333333333  12.677147826087 1.60124137931035  C 12.7350260869565 1.62514942528736  12.7856695652174 1.67535632183908  12.8290782608696 1.75186206896552  C 12.8724869565217 1.82836781609195  12.9038376811594 1.94312643678161  12.9231304347826 2.09613793103448  C 12.9327768115942 2.18220689655173  12.9424231884058 2.3280459770115  12.9520695652174 2.53365517241379  C 12.961715942029 2.73926436781609  12.9713623188406 2.97834482758621  12.9810086956522 3.25089655172414  C 12.9906550724638 3.52344827586207  12.9954782608696 3.80556321839081  12.9954782608696 4.09724137931035  C 12.9954782608696 4.38891954022989  12.9906550724638 4.66386206896552  12.9810086956522 4.92206896551724  C 12.9713623188406 5.2472183908046  12.8941913043478 5.48151724137931  12.7494956521739 5.62496551724138  C 12.6723246376812 5.70147126436782  12.556568115942 5.74450574712644  12.4022260869565 5.75406896551724  C 12.247884057971 5.76363218390805  12.0838956521739 5.74928735632184  11.9102608695652 5.71103448275862  C 11.6498086956522 5.65365517241379  11.3628289855072 5.59149425287356  11.0493217391304 5.52455172413793  C 10.7358144927536 5.4576091954023  10.4367768115942 5.38827586206897  10.1522086956522 5.31655172413793  C 9.86764057971014 5.2448275862069  9.6168347826087 5.17788505747126  9.39979130434783 5.11572413793103  Z " fill-rule="nonzero" fill="#000000" stroke="none" transform="matrix(1 0 0 1 1407 2412 )" />
  </g>
</svg>