<?xml version="1.0" encoding="utf-8"?>
<svg version="1.1" xmlns:xlink="http://www.w3.org/1999/xlink" width="21px" height="21px" xmlns="http://www.w3.org/2000/svg">
  <g transform="matrix(1 0 0 1 -1072 -2228 )">
    <path d="M 20.3500600961538 11.4342097355769  C 20.893359375 5.55951021634615  16.2642728365385 0.605769230769231  10.5 0.605769230769231  C 6.42746394230769 0.605769230769231  2.75246394230769 3.15220853365385  1.2837890625 6.89346454326923  C 1.11373197115385 7.32412860576923  1.36329627403846 7.80779747596154  1.80721153846154 7.93810096153846  C 2.20916466346154 8.05515324519231  2.62436899038462 7.84092548076923  2.77896634615385 7.45222355769231  C 4.01574519230769 4.3271484375  7.09223257211539 2.2025390625  10.5 2.2025390625  C 15.2019681490385 2.2025390625  19.0028545673077 6.13152043269231  18.7908353365385 10.8798677884615  C 18.6141526442308 14.8596454326923  15.553125 18.2121995192308  11.6042668269231 18.7267878605769  C 7.84975961538462 19.2170823317308  4.355859375 17.1609375  2.89822716346154 13.8348858173077  C 2.73037860576923 13.4528094951923  2.30634014423077 13.2540414663462  1.91101262019231 13.3887620192308  L 1.90880408653846 13.3887620192308  C 1.46047175480769 13.5389423076923  1.24624399038462 14.0424879807692  1.43617788461538 14.4775691105769  C 3.19637920673077 18.4926832932692  7.44780649038461 20.9551983173077  11.9863431490385 20.2838040865385  C 16.4519981971154 19.6234525240385  19.9370643028846 15.9285757211538  20.3500600961538 11.4342097355769  Z M 11.2442758413462 11.4562950721154  L 11.2442758413462 11.4585036057692  L 8.06398737980769 14.6387920673077  C 7.75258413461539 14.9501953125  7.75258413461539 15.4559495192308  8.06398737980769 15.7673527644231  C 8.375390625 16.0787560096154  8.88114483173077 16.0787560096154  9.19254807692308 15.7673527644231  L 13.6140324519231 11.3458683894231  C 13.7421274038462 11.2707782451923  13.8459284855769 11.1603515625  13.9143930288462 11.0300480769231  C 14.0380709134615 10.8688251201923  14.0932842548077 10.6744741586538  14.0778245192308 10.4801231971154  C 14.0954927884615 10.2548527644231  14.0226111778846 10.0229567307692  13.8503455528846 9.85069110576923  L 9.19254807692308 5.19068509615385  C 8.88114483173077 4.87928185096154  8.375390625 4.87928185096154  8.06398737980769 5.19068509615385  C 7.75258413461539 5.50208834134616  7.75258413461539 6.00784254807692  8.06398737980769 6.31924579326923  L 11.6064753605769 10  L 1.40304987980769 10  C 0.963551682692308 9.86173377403846  0.605769230769232 10.2217247596154  0.605769230769232 10.6590144230769  C 0.605769230769232 11.0985126201923  0.965760216346154 11.4562950721154  1.40304987980769 11.4562950721154  L 11.2442758413462 11.4562950721154  Z " fill-rule="nonzero" fill="#555555" stroke="none" transform="matrix(1 0 0 1 1072 2228 )" />
  </g>
</svg>