<?xml version="1.0" encoding="utf-8"?>
<svg version="1.1" xmlns:xlink="http://www.w3.org/1999/xlink" width="10px" height="10px" xmlns="http://www.w3.org/2000/svg">
  <g transform="matrix(1 0 0 1 -1022 -1579 )">
    <path d="M 7.23060869565217 3.9351724137931  C 7.06365217391304 3.88735632183908  6.95791304347826 3.85241379310345  6.91339130434783 3.83034482758621  C 6.78724637681159 3.77149425287356  6.72973913043478 3.69241379310345  6.74086956521739 3.59310344827586  C 6.752 3.49379310344828  6.79466666666667 3.41471264367816  6.86886956521739 3.35586206896552  C 6.89113043478261 3.34114942528736  6.96347826086957 3.28413793103448  7.08591304347826 3.1848275862069  C 7.20834782608696 3.08551724137931  7.35860869565217 2.96597701149425  7.53669565217391 2.82620689655172  C 7.22504347826087 2.47310344827586  6.85402898550725 2.19540229885057  6.42365217391304 1.99310344827586  C 5.99327536231884 1.79080459770115  5.52579710144928 1.68965517241379  5.02121739130435 1.68965517241379  C 4.55373913043478 1.68965517241379  4.11594202898551 1.77609195402299  3.70782608695652 1.94896551724138  C 3.29971014492754 2.12183908045977  2.94353623188406 2.35908045977011  2.63930434782609 2.66068965517241  C 2.33507246376812 2.96229885057471  2.09576811594203 3.31540229885057  1.92139130434783 3.72  C 1.74701449275362 4.12459770114942  1.65982608695652 4.55862068965517  1.65982608695652 5.02206896551724  C 1.65982608695652 5.47816091954023  1.74701449275362 5.90850574712644  1.92139130434783 6.31310344827586  C 2.09576811594203 6.71770114942529  2.33507246376812 7.07080459770115  2.63930434782609 7.37241379310345  C 2.94353623188406 7.67402298850575  3.29971014492754 7.91126436781609  3.70782608695652 8.08413793103448  C 4.11594202898551 8.25701149425287  4.55373913043478 8.34344827586207  5.02121739130435 8.34344827586207  C 5.40707246376812 8.34344827586207  5.77252173913044 8.28275862068965  6.1175652173913 8.16137931034483  C 6.46260869565217 8.04  6.77797101449275 7.86896551724138  7.06365217391304 7.64827586206896  C 7.34933333333333 7.42758620689655  7.59420289855073 7.16827586206897  7.79826086956522 6.87034482758621  C 8.00231884057971 6.57241379310345  8.15257971014493 6.24689655172414  8.24904347826087 5.89379310344827  C 8.30098550724638 5.72459770114942  8.39744927536232 5.5848275862069  8.5384347826087 5.47448275862069  C 8.67942028985507 5.36413793103448  8.8463768115942 5.30896551724138  9.03930434782609 5.30896551724138  C 9.26933333333334 5.30896551724138  9.46411594202899 5.38988505747126  9.62365217391304 5.55172413793103  C 9.7831884057971 5.7135632183908  9.86295652173913 5.90482758620689  9.86295652173913 6.12551724137931  C 9.86295652173913 6.22850574712644  9.84440579710145 6.32781609195402  9.80730434782609 6.42344827586207  C 9.65147826086957 6.9383908045977  9.42144927536232 7.41287356321839  9.11721739130435 7.84689655172414  C 8.81298550724638 8.28091954022988  8.45124637681159 8.65425287356322  8.032 8.96689655172414  C 7.61275362318841 9.27954022988506  7.14713043478261 9.52413793103448  6.63513043478261 9.70068965517241  C 6.12313043478261 9.87724137931034  5.58515942028986 9.96551724137931  5.02121739130435 9.96551724137931  C 4.33113043478261 9.96551724137931  3.68185507246377 9.8367816091954  3.07339130434783 9.57931034482758  C 2.46492753623188 9.32183908045977  1.93623188405797 8.96873563218391  1.48730434782609 8.52  C 1.0383768115942 8.07126436781609  0.682202898550725 7.54712643678161  0.418782608695652 6.94758620689655  C 0.15536231884058 6.34804597701149  0.0236521739130435 5.70620689655172  0.0236521739130437 5.02206896551724  C 0.023652173913044 4.33793103448276  0.15536231884058 3.69425287356322  0.418782608695652 3.09103448275862  C 0.682202898550725 2.48781609195402  1.0383768115942 1.96367816091954  1.48730434782609 1.51862068965517  C 1.93623188405797 1.07356321839081  2.46492753623188 0.720459770114943  3.07339130434783 0.459310344827586  C 3.68185507246377 0.19816091954023  4.33113043478261 0.0675862068965518  5.02121739130435 0.067586206896552  C 5.78550724637681 0.0675862068965521  6.49414492753623 0.223908045977012  7.14713043478261 0.536551724137931  C 7.80011594202899 0.849195402298851  8.35663768115942 1.27402298850575  8.81669565217391 1.81103448275862  C 8.98736231884058 1.68597701149425  9.13020289855073 1.57747126436782  9.24521739130435 1.48551724137931  C 9.36023188405797 1.39356321839081  9.43257971014493 1.33655172413793  9.46226086956522 1.31448275862069  C 9.50678260869565 1.27770114942529  9.55501449275362 1.25011494252874  9.60695652173913 1.23172413793103  C 9.65889855072464 1.21333333333333  9.70713043478261 1.21333333333333  9.75165217391304 1.23172413793103  C 9.79617391304348 1.25011494252874  9.83513043478261 1.28873563218391  9.86852173913043 1.34758620689655  C 9.90191304347826 1.4064367816092  9.92602898550725 1.49471264367816  9.94086956521739 1.61241379310345  C 9.94828985507247 1.67862068965517  9.95571014492754 1.79080459770115  9.96313043478261 1.94896551724138  C 9.97055072463768 2.10712643678161  9.97797101449275 2.29103448275862  9.98539130434783 2.50068965517241  C 9.9928115942029 2.71034482758621  9.99652173913043 2.92735632183908  9.99652173913043 3.15172413793103  C 9.99652173913043 3.37609195402299  9.9928115942029 3.58758620689655  9.98539130434783 3.78620689655172  C 9.97797101449275 4.03632183908046  9.91860869565217 4.21655172413793  9.80730434782609 4.32689655172414  C 9.74794202898551 4.38574712643678  9.65889855072464 4.41885057471264  9.54017391304348 4.42620689655172  C 9.42144927536232 4.43356321839081  9.29530434782609 4.42252873563218  9.16173913043478 4.39310344827586  C 8.96139130434782 4.34896551724138  8.74063768115942 4.30114942528736  8.49947826086956 4.24965517241379  C 8.25831884057971 4.19816091954023  8.02828985507246 4.1448275862069  7.80939130434783 4.08965517241379  C 7.59049275362319 4.03448275862069  7.3975652173913 3.98298850574713  7.23060869565217 3.9351724137931  Z " fill-rule="nonzero" fill="#000000" stroke="none" transform="matrix(1 0 0 1 1022 1579 )" />
  </g>
</svg>