<?xml version="1.0" encoding="utf-8"?>
<svg version="1.1" xmlns:xlink="http://www.w3.org/1999/xlink" width="17px" height="11px" xmlns="http://www.w3.org/2000/svg">
  <g transform="matrix(1 0 0 1 -892 -1104 )">
    <path d="M 0.205496755479112 1.38413082071882  L 0.208563867007771 1.38178923021419  L 7.82191181426183 10.6958577906592  C 7.97491595573292 10.8668619948901  8.19162378347967 10.9643240364449  8.41884920670068 10.9643240364449  C 8.64607462992169 10.9643240364449  8.86278245766844 10.8668619948901  9.01578659913953 10.6958577906592  L 16.6651731514109 1.38413082071882  C 16.8755019538199 1.14741825012646  16.9281773768812 0.806394409385674  16.7993594721166 0.51540055141051  C 16.6691608877571 0.223622202901155  16.3834411465149 0.0362369819884775  16.0686191570863 0  L 0.805117871815996 0  C 0.801944306735345 0.0361161692232861  0.798770541794632 0.0360967890483776  0.795596748301591 0.0360967890483776  C 0.357294629081261 0.0360967890483776  0.00198055782264798 0.397783063880495  0.00198055782264798 0.843945694564605  C 0.00198055782264798 1.04340807399394  0.0744718501003846 1.2358188909955  0.205496755479112 1.38413082071882  Z " fill-rule="nonzero" fill="#595959" stroke="none" transform="matrix(1 0 0 1 892 1104 )" />
  </g>
</svg>