<?xml version="1.0" encoding="utf-8"?>
<svg version="1.1" xmlns:xlink="http://www.w3.org/1999/xlink" width="27px" height="27px" xmlns="http://www.w3.org/2000/svg">
  <g transform="matrix(1 0 0 1 -1468 -2999 )">
    <path d="M 26.1643629807692 14.7011268028846  C 26.862890625 7.14794170673077  20.9112079326923 0.778846153846154  13.5 0.778846153846154  C 8.26388221153846 0.778846153846154  3.53888221153846 4.05283954326923  1.6505859375 8.86302584134615  C 1.43194110576923 9.41673677884615  1.75280949519231 10.0385967548077  2.32355769230769 10.2061298076923  C 2.84035456730769 10.3566256009615  3.37418870192308 10.0811899038462  3.57295673076923 9.58143028846154  C 5.16310096153846 5.5634765625  9.11858473557693 2.8318359375  13.5 2.8318359375  C 19.5453876201923 2.8318359375  24.4322415865385 7.88338341346154  24.1596454326923 13.9884014423077  C 23.9324819711538 19.1052584134615  19.996875 23.4156850961539  14.9197716346154 24.0772986778846  C 10.0925480769231 24.7076772836539  5.600390625 22.0640625  3.72629206730769 17.7877103365385  C 3.51048677884615 17.2964693509615  2.96529447115385 17.0409104567308  2.45701622596154 17.2141225961538  L 2.45417668269231 17.2141225961538  C 1.87774939903846 17.4072115384615  1.60231370192308 18.0546274038462  1.84651442307692 18.6140174278846  C 4.10963040865385 23.7763070913462  9.57575120192308 26.9423978365385  15.4110126201923 26.0791766826923  C 21.1525691105769 25.2301532451923  25.6333683894231 20.4795973557692  26.1643629807692 14.7011268028846  Z M 14.4569260817308 14.7295222355769  L 14.4569260817308 14.7323617788462  L 10.3679837740385 18.8213040865385  C 9.96760817307693 19.2216796875  9.96760817307693 19.8719350961538  10.3679837740385 20.2723106971154  C 10.768359375 20.6726862980769  11.4186147836538 20.6726862980769  11.8189903846154 20.2723106971154  L 17.5037560096154 14.5875450721154  C 17.6684495192308 14.4910006009615  17.8019080528846 14.3490234375  17.8899338942308 14.1814903846154  C 18.0489483173077 13.9742037259615  18.1199368990385 13.7243239182692  18.1000600961538 13.4744441105769  C 18.1227764423077 13.1848106971154  18.0290715144231 12.8866586538462  17.8075871394231 12.6651742788462  L 11.8189903846154 6.67373798076923  C 11.4186147836538 6.27336237980769  10.768359375 6.27336237980769  10.3679837740385 6.67373798076923  C 9.96760817307693 7.07411358173077  9.96760817307693 7.72436899038462  10.3679837740385 8.12474459134616  L 14.9226111778846 13  L 1.80392127403846 13  C 1.23885216346154 12.6793719951923  0.778846153846155 13.1422175480769  0.778846153846155 13.7044471153846  C 0.778846153846155 14.2695162259615  1.24169170673077 14.7295222355769  1.80392127403846 14.7295222355769  L 14.4569260817308 14.7295222355769  Z " fill-rule="nonzero" fill="#555555" stroke="none" transform="matrix(1 0 0 1 1468 2999 )" />
  </g>
</svg>