<?xml version="1.0" encoding="utf-8"?>
<svg version="1.1" xmlns:xlink="http://www.w3.org/1999/xlink" width="21px" height="17px" xmlns="http://www.w3.org/2000/svg">
  <g transform="matrix(1 0 0 1 -1024 -2230 )">
    <path d="M 0.801562500000017 14  L 20.19609375 14  C 20.62734375 14.0179945054945  20.9765625 13.6700549450549  20.8125 13.2403846153846  L 20.8125 0.931730769230761  C 20.97890625 0.50206043956044  20.6296875 0.154120879120888  20.1984375 0.186813186813187  L 0.801562500000017 0.186813186813187  C 0.370312499999983 0.154120879120888  0.0210937499999915 0.50206043956044  0.1875 0.931730769230761  L 0.1875 13.2403846153846  C 0.0210937499999915 13.6700549450549  0.370312499999983 14.0179945054945  0.801562500000017 14  Z M 1.3125 11.3956043956044  L 1.3125 1.49450549450549  L 19.6875 1.49450549450549  L 19.6875 11.5520604395605  L 19.66875 11.3956043956044  L 1.3125 11.3956043956044  Z M 7.32187499999999 17  L 13.6640625 17  L 13.6640625 16.6614010989011  C 13.3453125 16.5282967032967  13.13203125 16.3321428571428  12.9890625 16.1149725274725  C 12.8484375 15.8347527472528  12.740625 15.4167582417583  12.740625 14.7582417582418  L 8.24531249999998 14.7582417582418  C 8.24531249999998 15.4167582417583  8.13750000000002 15.8370879120879  7.99687500000002 16.1149725274725  C 7.85390625000001 16.3321428571428  7.640625 16.5282967032967  7.32187499999999 16.6590659340659  L 7.32187499999999 17  Z M 11.625 7.0848901098901  L 11.625 10.3914835164835  L 13.3125 10.3914835164835  L 13.3125 7.0848901098901  L 11.625 7.0848901098901  Z M 4.875 7.0848901098901  L 4.875 10.3914835164835  L 6.375 10.3914835164835  L 6.375 7.0848901098901  L 4.875 7.0848901098901  Z M 8.4375 5.62541208791208  L 8.4375 10.3938186813187  L 10.125 10.3938186813187  L 10.125 5.62541208791208  L 8.4375 5.62541208791208  Z M 14.8125 5.62541208791208  L 14.8125 10.3938186813187  L 16.5 10.3938186813187  L 16.5 5.62541208791208  L 14.8125 5.62541208791208  Z M 9.33984375 4.00013736263735  L 12.6984375 6.27692307692306  L 12.71484375 6.30027472527471  L 12.74765625 6.27692307692306  L 17.49140625 2.77184065934068  L 16.9734375 2.07596153846153  L 12.70078125 5.2331043956044  L 9.40546874999998 2.99835164835164  L 3.515625 6.0037087912088  L 3.91171874999999 6.7743131868132  L 9.33984375 4.00013736263735  Z " fill-rule="nonzero" fill="#494949" stroke="none" transform="matrix(1 0 0 1 1024 2230 )" />
  </g>
</svg>