<?xml version="1.0" encoding="utf-8"?>
<svg version="1.1" xmlns:xlink="http://www.w3.org/1999/xlink" width="18px" height="21px" xmlns="http://www.w3.org/2000/svg">
  <g transform="matrix(1 0 0 1 -400 -1399 )">
    <path d="M 8.25 0.148672566371682  C 8.7 0  9.3 0  9.75 0.148672566371682  L 17.25 3.71681415929204  C 17.7 4.0141592920354  18 4.46017699115044  18 5.05486725663717  L 18 9.36637168141593  C 18 10.7044247787611  17.7 11.8938053097345  17.25 13.2318584070796  C 16.8 14.4212389380531  16.2 15.6106194690265  15.45 16.6513274336283  C 14.7 17.6920353982301  13.65 18.7327433628319  12.6 19.4761061946903  C 11.55 20.2194690265487  10.35 20.6654867256637  9 20.9628318584071  C 7.65 20.6654867256637  6.45 20.2194690265487  5.4 19.4761061946903  C 4.35 18.7327433628319  3.3 17.6920353982301  2.55 16.6513274336283  C 1.8 15.6106194690265  1.2 14.5699115044248  0.75 13.2318584070796  C 0.3 11.8938053097345  0 10.5557522123894  0 9.21769911504425  L 0 5.05486725663717  C 0 4.46017699115044  0.3 4.0141592920354  0.75 3.71681415929204  L 8.25 0.148672566371682  Z M 16.5 5.20353982300885  L 9 1.78407079646018  L 1.5 5.20353982300885  L 1.5 9.21769911504425  C 1.5 10.4070796460177  1.65 11.4477876106195  2.1 12.6371681415929  C 2.55 13.6778761061947  3 14.7185840707965  3.75 15.6106194690265  C 4.65 16.8  5.4 17.5433628318584  6.3 18.1380530973451  C 7.05 18.5840707964602  7.95 19.0300884955752  9 19.3274336283186  C 10.05 19.0300884955752  10.95 18.5840707964602  11.7 18.1380530973451  C 12.45 17.5433628318584  13.35 16.8  14.25 15.6106194690265  C 15 14.7185840707965  15.45 13.8265486725664  15.9 12.6371681415929  C 16.35 11.4477876106195  16.5 10.4070796460177  16.5 9.21769911504425  L 16.5 5.20353982300885  Z M 7.95 11.4477876106195  L 13.2 6.3929203539823  L 14.25 7.43362831858407  L 7.95 13.529203539823  L 3.75 9.36637168141593  L 4.8 8.32566371681416  L 7.95 11.4477876106195  Z " fill-rule="nonzero" fill="#ffd400" stroke="none" transform="matrix(1 0 0 1 400 1399 )" />
  </g>
</svg>