<?xml version="1.0" encoding="utf-8"?>
<svg version="1.1" xmlns:xlink="http://www.w3.org/1999/xlink" width="12px" height="14px" xmlns="http://www.w3.org/2000/svg">
  <g transform="matrix(1 0 0 1 -323 -144 )">
    <path d="M 5.5 0.0991150442477881  C 5.8 0  6.2 0  6.5 0.0991150442477877  L 11.5 2.47787610619469  C 11.8 2.67610619469027  12 2.97345132743363  12 3.36991150442478  L 12 6.24424778761062  C 12 7.13628318584071  11.8 7.92920353982301  11.5 8.8212389380531  C 11.2 9.6141592920354  10.8 10.4070796460177  10.3 11.1008849557522  C 9.8 11.7946902654867  9.1 12.4884955752212  8.4 12.9840707964602  C 7.7 13.4796460176991  6.9 13.7769911504425  6 13.9752212389381  C 5.1 13.7769911504425  4.3 13.4796460176991  3.6 12.9840707964602  C 2.9 12.4884955752212  2.2 11.7946902654867  1.7 11.1008849557522  C 1.2 10.4070796460177  0.8 9.71327433628318  0.5 8.8212389380531  C 0.2 7.92920353982301  0 7.03716814159292  0 6.14513274336283  L 0 3.36991150442478  C 0 2.97345132743363  0.2 2.67610619469027  0.5 2.47787610619469  L 5.5 0.0991150442477881  Z M 11 3.46902654867257  L 6 1.18938053097345  L 1 3.46902654867257  L 1 6.14513274336283  C 1 6.93805309734513  1.1 7.63185840707964  1.4 8.42477876106195  C 1.7 9.11858407079646  2 9.81238938053097  2.5 10.4070796460177  C 3.1 11.2  3.6 11.6955752212389  4.2 12.0920353982301  C 4.7 12.3893805309735  5.3 12.6867256637168  6 12.8849557522124  C 6.7 12.6867256637168  7.3 12.3893805309735  7.8 12.0920353982301  C 8.3 11.6955752212389  8.9 11.2  9.5 10.4070796460177  C 10 9.81238938053097  10.3 9.21769911504425  10.6 8.42477876106195  C 10.9 7.63185840707964  11 6.93805309734513  11 6.14513274336283  L 11 3.46902654867257  Z M 5.3 7.63185840707965  L 8.8 4.26194690265487  L 9.5 4.95575221238938  L 5.3 9.01946902654867  L 2.5 6.24424778761062  L 3.2 5.55044247787611  L 5.3 7.63185840707965  Z " fill-rule="nonzero" fill="#ffd400" stroke="none" transform="matrix(1 0 0 1 323 144 )" />
  </g>
</svg>