<?xml version="1.0" encoding="utf-8"?>
<svg version="1.1" xmlns:xlink="http://www.w3.org/1999/xlink" width="13px" height="17px" xmlns="http://www.w3.org/2000/svg">
  <g transform="matrix(1 0 0 1 -1993 -944 )">
    <path d="M 12 14.3765432164352  L 12 4.3024691423611  C 12.6271317892442 4.3024691423611  12.9496124156977 3.96666666666667  12.9496123968023 3.46296296296296  C 12.949612377907 2.95925925925925  12.6271317703488 2.62345678356482  12.1434108590116 2.67592592592593  L 10.5310077456395 2.67592592592593  L 10.5310077456395 1.78395062384258  C 10.5310077456395 0.776543216435197  9.88604651162792 0.104938284722239  8.91860465116279 0.157407407407407  L 4.08139534883721 0.157407407407407  C 3.11395348837208 0.104938265046306  2.46899225436046 0.776543196759264  2.46899225436046 1.78395062384258  L 2.46899225436046 2.67592592592593  L 0.856589140988381 2.67592592592593  C 0.372868210755816 2.62345678356482  0.0503875843023099 2.95925925925925  0.0503876031976651 3.46296296296296  C 0.0503876220930203 3.96666666666667  0.372868229651172 4.3024691423611  1 4.3024691423611  L 1 14.3765432164352  C 0.856589140988381 15.8037037037037  1.90465116279068 16.8950617349537  3.27519379215117 16.8425925925926  L 9.72480620784883 16.8425925925926  C 11.0953488372093 16.8950617349537  12.1434108590116 15.8037037037037  12 14.3765432164352  Z M 2.56976744186046 14.3765432164352  L 2.56976744186046 4.40740740740741  L 10.4302325581395 4.40740740740741  L 10.4302325581395 14.3765432164352  C 10.5310077456395 14.8802469201389  10.208527119186 15.2160493958333  9.72480620784883 15.1111111111111  L 3.27519379215117 15.1111111111111  C 2.79147286191861 15.2160493761574  2.4689922354651 14.880246900463  2.56976744186046 14.3765432164352  Z M 8.91860465116279 1.88888888888889  L 8.9992248125 2.67592592592593  L 4.08139534883721 2.67592592592593  L 4.08139534883721 1.88888888888889  L 8.91860465116279 1.88888888888889  Z M 8.11240309447675 12.6975308576389  C 8.59612400581396 12.697530837963  8.91860465116279 12.3617283819444  8.91860465116279 11.8580246979167  L 8.91860465116279 7.66049382060186  C 8.91860465116279 7.15679011689815  8.59612402470932 6.82098764120369  8.11240309447675 6.82098766087962  C 7.62868216424419 6.82098766087962  7.30620153779072 7.15679013657408  7.25581395348837 7.66049382060186  L 7.25581395348837 11.8580246979167  C 7.30620155668604 12.3617284016204  7.62868218313954 12.6975308773148  8.11240309447675 12.6975308576389  Z M 4.88759690552325 12.6975308576389  C 5.37131783575581 12.697530837963  5.69379846220932 12.3617283819444  5.74418604651163 11.8580246979167  L 5.74418604651163 7.66049382060186  C 5.69379844331396 7.15679011689815  5.37131781686046 6.82098764120369  4.88759690552325 6.82098766087962  C 4.40387597529068 6.82098766087962  4.08139534883721 7.15679013657408  4.08139534883721 7.66049382060186  L 4.08139534883721 11.8580246979167  C 4.08139534883721 12.3617284016204  4.40387597529068 12.6975308773148  4.88759690552325 12.6975308576389  Z " fill-rule="nonzero" fill="#555555" stroke="none" transform="matrix(1 0 0 1 1993 944 )" />
  </g>
</svg>