<?xml version="1.0" encoding="utf-8"?>
<svg version="1.1" xmlns:xlink="http://www.w3.org/1999/xlink" width="21px" height="20px" preserveAspectRatio="xMinYMid meet" viewBox="828 366  21 18" xmlns="http://www.w3.org/2000/svg">
  <path d="M 840 375  L 796 375  A 5 5 0 0 1 791 370 L 791 320  A 5 5 0 0 0 786 315 L 746 315  " stroke-width="2" stroke="#138fe0" fill="none" />
  <path d="M 838.5 371.5  A 3.5 3.5 0 0 0 835 375 A 3.5 3.5 0 0 0 838.5 378.5 A 3.5 3.5 0 0 0 842 375 A 3.5 3.5 0 0 0 838.5 371.5 Z M 747 307.4  L 740 315  L 747 322.6  L 747 307.4  Z " fill-rule="nonzero" fill="#138fe0" stroke="none" />
</svg>