<?xml version="1.0" encoding="utf-8"?>
<svg version="1.1" xmlns:xlink="http://www.w3.org/1999/xlink" width="56px" height="10px" preserveAspectRatio="xMinYMid meet" viewBox="740 391  56 8" xmlns="http://www.w3.org/2000/svg">
  <path d="M 840 455  L 796 455  A 5 5 0 0 1 791 450 L 791 400  A 5 5 0 0 0 786 395 L 746 395  " stroke-width="2" stroke="#138fe0" fill="none" />
  <path d="M 838.5 451.5  A 3.5 3.5 0 0 0 835 455 A 3.5 3.5 0 0 0 838.5 458.5 A 3.5 3.5 0 0 0 842 455 A 3.5 3.5 0 0 0 838.5 451.5 Z M 747 387.4  L 740 395  L 747 402.6  L 747 387.4  Z " fill-rule="nonzero" fill="#138fe0" stroke="none" />
</svg>