<?xml version="1.0" encoding="utf-8"?>
<svg version="1.1" xmlns:xlink="http://www.w3.org/1999/xlink" width="21px" height="20px" preserveAspectRatio="xMinYMid meet" viewBox="146 431  21 18" xmlns="http://www.w3.org/2000/svg">
  <path d="M 158 440  L 135 440  A 5 5 0 0 0 130 445 L 130 826  A 5 5 0 0 0 135 831 " stroke-width="2" stroke="#138fe0" fill="none" />
  <path d="M 156.5 436.5  A 3.5 3.5 0 0 0 153 440 A 3.5 3.5 0 0 0 156.5 443.5 A 3.5 3.5 0 0 0 160 440 A 3.5 3.5 0 0 0 156.5 436.5 Z M 133 838.6  L 140 831  L 133 823.4  L 133 838.6  Z " fill-rule="nonzero" fill="#138fe0" stroke="none" />
</svg>