<?xml version="1.0" encoding="utf-8"?>
<svg version="1.1" xmlns:xlink="http://www.w3.org/1999/xlink" width="15px" height="10px" preserveAspectRatio="xMinYMid meet" viewBox="125 712  15 8" xmlns="http://www.w3.org/2000/svg">
  <path d="M 158 290  L 135 290  A 5 5 0 0 0 130 295 L 130 711  A 5 5 0 0 0 135 716 " stroke-width="2" stroke="#138fe0" fill="none" />
  <path d="M 156.5 286.5  A 3.5 3.5 0 0 0 153 290 A 3.5 3.5 0 0 0 156.5 293.5 A 3.5 3.5 0 0 0 160 290 A 3.5 3.5 0 0 0 156.5 286.5 Z M 133 723.6  L 140 716  L 133 708.4  L 133 723.6  Z " fill-rule="nonzero" fill="#138fe0" stroke="none" />
</svg>