<?xml version="1.0" encoding="utf-8"?>
<svg version="1.1" xmlns:xlink="http://www.w3.org/1999/xlink" width="20px" height="20px" preserveAspectRatio="xMinYMid meet" viewBox="125 627  20 18" xmlns="http://www.w3.org/2000/svg">
  <path d="M 158 210  L 75 210  A 5 5 0 0 0 70 215 L 70 631  A 5 5 0 0 0 75 636 L 97 636  A 3 3 0 0 1 100 633 A 3 3 0 0 1 103 636 L 134 636  " stroke-width="2" stroke="#138fe0" fill="none" />
  <path d="M 156.5 206.5  A 3.5 3.5 0 0 0 153 210 A 3.5 3.5 0 0 0 156.5 213.5 A 3.5 3.5 0 0 0 160 210 A 3.5 3.5 0 0 0 156.5 206.5 Z M 133 643.6  L 140 636  L 133 628.4  L 133 643.6  Z " fill-rule="nonzero" fill="#138fe0" stroke="none" />
</svg>