<?xml version="1.0" encoding="utf-8"?>
<svg version="1.1" xmlns:xlink="http://www.w3.org/1999/xlink" width="45px" height="10px" preserveAspectRatio="xMinYMid meet" viewBox="95 1233  45 8" xmlns="http://www.w3.org/2000/svg">
  <path d="M 158 982  L 105 982  A 5 5 0 0 0 100 987 L 100 1232  A 5 5 0 0 0 105 1237 L 134 1237  " stroke-width="2" stroke="#138fe0" fill="none" />
  <path d="M 156.5 978.5  A 3.5 3.5 0 0 0 153 982 A 3.5 3.5 0 0 0 156.5 985.5 A 3.5 3.5 0 0 0 160 982 A 3.5 3.5 0 0 0 156.5 978.5 Z M 133 1244.6  L 140 1237  L 133 1229.4  L 133 1244.6  Z " fill-rule="nonzero" fill="#138fe0" stroke="none" />
</svg>