<?xml version="1.0" encoding="utf-8"?>
<svg version="1.1" xmlns:xlink="http://www.w3.org/1999/xlink" width="56px" height="10px" preserveAspectRatio="xMinYMid meet" viewBox="740 978  56 8" xmlns="http://www.w3.org/2000/svg">
  <path d="M 840 933  L 796 933  A 5 5 0 0 0 791 938 L 791 977  A 5 5 0 0 1 786 982 L 746 982  " stroke-width="2" stroke="#138fe0" fill="none" />
  <path d="M 838.5 929.5  A 3.5 3.5 0 0 0 835 933 A 3.5 3.5 0 0 0 838.5 936.5 A 3.5 3.5 0 0 0 842 933 A 3.5 3.5 0 0 0 838.5 929.5 Z M 747 974.4  L 740 982  L 747 989.6  L 747 974.4  Z " fill-rule="nonzero" fill="#138fe0" stroke="none" />
</svg>