<?xml version="1.0" encoding="utf-8"?>
<svg version="1.1" xmlns:xlink="http://www.w3.org/1999/xlink" width="21px" height="20px" preserveAspectRatio="xMinYMid meet" viewBox="828 1004  21 18" xmlns="http://www.w3.org/2000/svg">
  <path d="M 840 1013  L 796 1013  A 5 5 0 0 0 791 1018 L 791 1057  A 5 5 0 0 1 786 1062 L 746 1062  " stroke-width="2" stroke="#138fe0" fill="none" />
  <path d="M 838.5 1009.5  A 3.5 3.5 0 0 0 835 1013 A 3.5 3.5 0 0 0 838.5 1016.5 A 3.5 3.5 0 0 0 842 1013 A 3.5 3.5 0 0 0 838.5 1009.5 Z M 747 1054.4  L 740 1062  L 747 1069.6  L 747 1054.4  Z " fill-rule="nonzero" fill="#138fe0" stroke="none" />
</svg>