<?xml version="1.0" encoding="utf-8"?>
<svg version="1.1" xmlns:xlink="http://www.w3.org/1999/xlink" width="526px" height="10px" preserveAspectRatio="xMinYMid meet" viewBox="919 486  526 8" xmlns="http://www.w3.org/2000/svg">
  <path d="M 926 490  L 1435 490  A 5 5 0 0 0 1440 485 L 1440 293  A 5 5 0 0 1 1445 288 L 1464 288  " stroke-width="2" stroke="#138fe0" fill="none" />
  <path d="M 927.5 486.5  A 3.5 3.5 0 0 0 924 490 A 3.5 3.5 0 0 0 927.5 493.5 A 3.5 3.5 0 0 0 931 490 A 3.5 3.5 0 0 0 927.5 486.5 Z M 1463 295.6  L 1470 288  L 1463 280.4  L 1463 295.6  Z " fill-rule="nonzero" fill="#138fe0" stroke="none" />
</svg>