<?xml version="1.0" encoding="utf-8"?>
<svg version="1.1" xmlns:xlink="http://www.w3.org/1999/xlink" width="20px" height="20px" preserveAspectRatio="xMinYMid meet" viewBox="1455 359  20 18" xmlns="http://www.w3.org/2000/svg">
  <path d="M 926 570  L 1435 570  A 5 5 0 0 0 1440 565 L 1440 373  A 5 5 0 0 1 1445 368 L 1464 368  " stroke-width="2" stroke="#138fe0" fill="none" />
  <path d="M 927.5 566.5  A 3.5 3.5 0 0 0 924 570 A 3.5 3.5 0 0 0 927.5 573.5 A 3.5 3.5 0 0 0 931 570 A 3.5 3.5 0 0 0 927.5 566.5 Z M 1463 375.6  L 1470 368  L 1463 360.4  L 1463 375.6  Z " fill-rule="nonzero" fill="#138fe0" stroke="none" />
</svg>