<?xml version="1.0" encoding="utf-8"?>
<svg version="1.1" xmlns:xlink="http://www.w3.org/1999/xlink" width="21px" height="20px" preserveAspectRatio="xMinYMid meet" viewBox="920 978  21 18" xmlns="http://www.w3.org/2000/svg">
  <path d="M 929 987  L 1445 987  A 5 5 0 0 1 1450 992 L 1450 1137  A 5 5 0 0 0 1455 1142 L 1464 1142  " stroke-width="2" stroke="#138fe0" fill="none" />
  <path d="M 930.5 983.5  A 3.5 3.5 0 0 0 927 987 A 3.5 3.5 0 0 0 930.5 990.5 A 3.5 3.5 0 0 0 934 987 A 3.5 3.5 0 0 0 930.5 983.5 Z M 1463 1149.6  L 1470 1142  L 1463 1134.4  L 1463 1149.6  Z " fill-rule="nonzero" fill="#138fe0" stroke="none" />
</svg>