<?xml version="1.0" encoding="utf-8"?>
<svg version="1.1" xmlns:xlink="http://www.w3.org/1999/xlink" width="40px" height="43px" xmlns="http://www.w3.org/2000/svg">
  <defs>
    <filter x="1530px" y="1114px" width="40px" height="43px" filterUnits="userSpaceOnUse" id="filter289">
      <feOffset dx="0" dy="0" in="SourceAlpha" result="shadowOffsetInner" />
      <feGaussianBlur stdDeviation="5" in="shadowOffsetInner" result="shadowGaussian" />
      <feComposite in2="shadowGaussian" operator="atop" in="SourceAlpha" result="shadowComposite" />
      <feColorMatrix type="matrix" values="0 0 0 0 1  0 0 0 0 1  0 0 0 0 1  0 0 0 0.313725490196078 0  " in="shadowComposite" />
    </filter>
    <g id="widget290">
      <path d="M 19.8092924479167 4.2953238515625  C 19.8092924479167 3.89636651897321  19.6350903645833 3.5163483515625  19.3297770833333 3.2448692890625  C 19.050153046875 2.99461470870536  18.68192234375 2.85767999888393  18.3011401302083 2.85767999888393  C 18.2664169791667 2.85767999888393  18.2316938020833 2.85767999888393  18.1969972916667 2.86004412165179  C 18.1759981770833 2.86238195870536  17.93352234375 2.87661918973214  17.5545788802083 2.87661918973214  C 16.9265240625 2.87661918973214  15.7003675260417 2.8341176796875  14.5388605208333 2.56266487723214  C 13.0391025260417 2.21091101450893  11.3082209895833 0.582010353794642  10.8046685677083 0.260963698660713  C 10.55081375 0.0981288069196417  10.2586382291667 0.0178540066964272  9.96587643229167 0.0178540066964272  C 9.674313828125 0.0178540066964272  9.38213828125 0.0981288069196417  9.12886973958333 0.258625861607141  C 9.067817734375 0.298763248883927  7.25547135416667 2.1471324765625  5.48272484375 2.56266487723214  C 4.32183078125 2.8341176796875  3.072303359375 2.87661918973214  2.44483481770833 2.87661918973214  C 2.06583807291667 2.87661918973214  1.824001796875 2.86238195870536  1.800071328125 2.86004412165179  C 1.76713361979167 2.85767999888393  1.7341959375 2.85767999888393  1.700671953125 2.85767999888393  C 1.31927682291667 2.85767999888393  0.949873567708335 2.99458844866071  0.669077005208335 3.2448692890625  C 0.364349973958335 3.51632209151786  0.190734166666668 3.89636651897321  0.190734166666668 4.2953238515625  L 0.190734166666668 7.89056302455357  C 0.190734166666668 21.181006546875  9.312745234375 22.8924672991071  9.699470078125 22.9608427310268  C 9.78810341145834 22.9751062220982  9.87729635416667 22.9821460189732  9.96651596354167 22.9821460189732  C 10.05512265625 22.9821460189732  10.1455147916667 22.9751062220982  10.232922265625 22.9608427310268  C 10.6202600260417 22.8924410390625  19.8092923958333 21.1809802611607  19.8092923958333 7.89056302455357  L 19.8092924479167 4.2953238515625  Z M 15.9578198697917 7.14468511495536  C 16.3176296354167 7.48687744642857  16.3176296354167 8.04404654241071  15.9577932291667 8.38629141964286  L 9.63362135416667 14.4177760982143  C 9.59410143229167 14.4814495703125  9.5456009375 14.5452806283482  9.48692067708333 14.5995501808036  C 9.30131299479167 14.7765960435268  9.0558525 14.8615728035714  8.812737109375 14.8568445580357  C 8.569701640625 14.8615727779018  8.32477411458333 14.7765960178571  8.13921973958333 14.5995501808036  C 8.08056611979167 14.5452806283482  8.03147934895833 14.4814495703125  7.99195942708333 14.4177760982143  L 4.6122475 11.1931249129464  C 4.252384453125 10.8508012299107  4.252384453125 10.2961013482143  4.6122475 9.95141354241072  C 4.97205723958333 9.60919495089286  5.55576872395834 9.60919495089286  5.91563177083334 9.95141354241072  L 8.81276375 12.7157717857143  L 14.655021875 7.14468511495536  C 15.014884921875 6.80236143191964  15.5979834895833 6.80236143191964  15.9578198697917 7.14468511495536  Z " fill-rule="nonzero" fill="#70b603" stroke="none" transform="matrix(1 0 0 1 1540 1124 )" />
    </g>
  </defs>
  <g transform="matrix(1 0 0 1 -1530 -1114 )">
    <use xlink:href="#widget290" filter="url(#filter289)" />
    <use xlink:href="#widget290" />
  </g>
</svg>