<?xml version="1.0" encoding="utf-8"?>
<svg version="1.1" xmlns:xlink="http://www.w3.org/1999/xlink" width="9px" height="10px" xmlns="http://www.w3.org/2000/svg">
  <g transform="matrix(1 0 0 1 -532 -141 )">
    <path d="M 8.9141816015625 1.867532109375  C 8.9141816015625 1.69407239955357  8.8357906640625 1.528847109375  8.6983996875 1.410812734375  C 8.57256887109375 1.30200639508929  8.4068650546875 1.24246956473214  8.23551305859375 1.24246956473214  C 8.219887640625 1.24246956473214  8.2042622109375 1.24246956473214  8.18864878125 1.24349744419643  C 8.1791991796875 1.24451389508929  8.0700850546875 1.25070399553571  7.89956049609375 1.25070399553571  C 7.616935828125 1.25070399553571  7.06516538671875 1.232225078125  6.542487234375 1.11420212053571  C 5.86759613671875 0.961265658482142  5.0886994453125 0.253047979910714  4.86210085546875 0.113462477678571  C 4.7478661875 0.0426646986607138  4.616387203125 0.00776261160714228  4.48464439453125 0.00776261160714228  C 4.35344122265625 0.00776261160714228  4.2219622265625 0.0426646986607138  4.1079913828125 0.112446026785714  C 4.08051798046875 0.129897064732142  3.264962109375 0.933535859374999  2.4672261796875 1.11420212053571  C 1.9448238515625 1.232225078125  1.38253651171875 1.25070399553571  1.10017566796875 1.25070399553571  C 0.929627132812501 1.25070399553571  0.82080080859375 1.24451389508929  0.810032097656251 1.24349744419643  C 0.795210128906251 1.24246956473214  0.780388171875001 1.24246956473214  0.765302378906251 1.24246956473214  C 0.5936745703125 1.24246956473214  0.427443105468751 1.30199497767857  0.301084652343751 1.410812734375  C 0.163957488281251 1.52883569196429  0.0858303750000005 1.69407239955357  0.0858303750000005 1.867532109375  L 0.0858303750000005 3.43067957589286  C 0.0858303750000005 9.20913328125  4.19073535546875 9.95324665178571  4.36476153515625 9.98297510044643  C 4.40464653515625 9.98917661830357  4.444783359375 9.99223739955357  4.48493218359375 9.99223739955357  C 4.5248051953125 9.99223739955357  4.56548165625 9.98917661830357  4.60481501953125 9.98297510044643  C 4.77911701171875 9.953235234375  8.914181578125 9.20912185267857  8.914181578125 3.43067957589286  L 8.9141816015625 1.867532109375  Z M 7.18101894140625 3.10638483258929  C 7.3429333359375 3.25516410714286  7.3429333359375 3.49741154017857  7.181006953125 3.64621366071429  L 4.335129609375 6.26859830357143  C 4.31734564453125 6.296282421875  4.295520421875 6.32403505580357  4.2691143046875 6.34763051339286  C 4.18559084765625 6.42460697544643  4.075133625 6.46155339285714  3.96573169921875 6.45949763392857  C 3.85636573828125 6.46155338169643  3.7461483515625 6.42460696428571  3.6626488828125 6.34763051339286  C 3.63625475390625 6.32403505580357  3.61416570703125 6.296282421875  3.5963817421875 6.26859830357143  L 2.075511375 4.86657604910714  C 1.91357300390625 4.71773966517857  1.91357300390625 4.47656580357143  2.075511375 4.32670154017857  C 2.2374257578125 4.17791084821429  2.50009592578125 4.17791084821429  2.662034296875 4.32670154017857  L 3.9657436875 5.52859642857143  L 6.59475984375 3.10638483258929  C 6.75669821484375 2.95754844866071  7.0190925703125 2.95754844866071  7.18101894140625 3.10638483258929  Z " fill-rule="nonzero" fill="#70b603" stroke="none" transform="matrix(1 0 0 1 532 141 )" />
  </g>
</svg>