<?xml version="1.0" encoding="utf-8"?>
<svg version="1.1" xmlns:xlink="http://www.w3.org/1999/xlink" width="17px" height="16px" xmlns="http://www.w3.org/2000/svg">
  <g transform="matrix(1 0 0 1 -1973 -2393 )">
    <path d="M 16.4698277274639 4.07570409635417  C 16.5743904136118 3.76527241666667  16.4206217995793 3.42975530729167  16.1223106651142 3.32000671875  C 15.823999530649 3.21025813020833  15.4949346733774 3.37017750520833  15.3903720229868 3.674337859375  L 14.9475183859676 4.9411501171875  C 14.4277804329928 3.7464583671875  13.6066559929387 2.69600761458333  12.5610293460036 1.90895346354167  C 9.23655171574519 -0.599585640625001  4.50047809960938 0.0839912656249992  2.00942640925481 3.43916232291667  C 0.803880389423077 5.06344139322917  0.293368565805288 7.06400134375  0.576302829927885 9.07083263802083  C 0.859237094050481 11.0870709479167  1.90793911147837 12.8712693932292  3.52250965715144 14.0910465364583  C 4.87567355003005 15.1101405520833  6.45949037289664 15.6055770182292  8.03100569591346 15.6055770182292  C 10.3283089379507 15.6055770182292  12.5948584393029 14.555126265625  14.0741125939002 12.5639733489583  C 14.7291669379507 11.6828489869792  15.1750959454627 10.6982473802083  15.4057488754507 9.63211826822917  C 15.4734070620493 9.31541520833333  15.2765832253606 9.0049834921875  14.9690459794171 8.93599865625  C 14.6615087334736 8.86701383854167  14.35397148753 9.06456129427083  14.2863132830529 9.38126435416667  C 14.092564816857 10.281202765625  13.7142939959435 11.1152920130208  13.1607269675481 11.8584467213542  C 11.0479460802284 14.7025029348958  7.02843427163461 15.2826026145833  4.20524233563702 13.1503443723958  C 2.83670159029447 12.1187076692708  1.95099431625601 10.6104485130208  1.71111525691106 8.90464191927084  C 1.4712361975661 7.20824234114584  1.90178835261418 5.518114125  2.92281201772836 4.14468895052084  C 5.03251753455529 1.30063273697917  9.04895399053486 0.717397385416667  11.8752212791466 2.84965562760417  C 12.8993203147536 3.62103140104167  13.6650880501803 4.690296203125  14.0802633348858 5.897530640625  L 12.1089495796274 5.11361216145833  C 11.813713815655 4.99759222916667  11.4815735878906 5.1449688984375  11.3647094376502 5.44599359895833  C 11.2478452874099 5.74701829947917  11.3954631604567 6.08567108072917  11.6906989244291 6.20482668489583  L 14.5938505289964 7.36189035416667  C 14.6615087155949 7.39011141927083  14.7322422905649 7.40265410677083  14.8029758655349 7.40265410677083  C 14.8122019770132 7.40265410677083  14.8214281063702 7.39951843489583  14.8306542178486 7.39951843489583  C 14.8521818291767 7.40265410677083  14.8737094405048 7.41206112239583  14.8952370339543 7.41206112239583  C 15.1320407228065 7.41206112239583  15.3534675234375 7.26154878125  15.4365025803786 7.0232375546875  L 16.4698277274639 4.07570409635417  Z " fill-rule="nonzero" fill="#575b66" stroke="none" transform="matrix(1 0 0 1 1973 2393 )" />
  </g>
</svg>